<svg width="18" height="18" viewBox="0 0 18 18" fill="none" xmlns="http://www.w3.org/2000/svg">
<rect width="18" height="18" rx="3" fill="#F1F1F1"/>
<path fill-rule="evenodd" clip-rule="evenodd" d="M14.6126 4.14028C14.8046 4.26288 14.9378 4.4535 14.9831 4.67021C15.0284 4.88692 14.9819 5.11197 14.8539 5.29586L9.05295 13.6294C8.9815 13.7319 8.88721 13.8179 8.77686 13.8813C8.66652 13.9447 8.54286 13.9838 8.41481 13.996C8.28675 14.0081 8.15749 13.9928 8.03632 13.9514C7.91515 13.9099 7.8051 13.8432 7.7141 13.756L4.23354 10.4226C4.07983 10.2647 3.99616 10.0557 4.00014 9.83981C4.00411 9.62392 4.09543 9.41793 4.25486 9.26525C4.41428 9.11256 4.62936 9.0251 4.85479 9.02129C5.08022 9.01748 5.29838 9.09762 5.46333 9.24483L8.19325 11.8593L13.406 4.37028C13.5342 4.18659 13.7333 4.05917 13.9595 4.01604C14.1858 3.9729 14.4207 4.01759 14.6126 4.14028Z" fill="black"/>
</svg>
