<svg width="22" height="23" viewBox="0 0 22 23" fill="none" xmlns="http://www.w3.org/2000/svg">
<path id="Vector" fill-rule="evenodd" clip-rule="evenodd" d="M14.9061 16.7787C13.1294 18.0875 10.9237 18.6768 8.73092 18.4282C6.53817 18.1797 4.5203 17.1118 3.08157 15.4385C1.64284 13.7652 0.889508 11.61 0.972505 9.40481C1.0555 7.19958 1.96869 5.10715 3.52913 3.54671C5.08957 1.98627 7.182 1.07308 9.38723 0.990083C11.5925 0.907086 13.7476 1.66041 15.4209 3.09915C17.0942 4.53788 18.1621 6.55575 18.4107 8.7485C18.6592 10.9413 18.07 13.1469 16.7611 14.9237L21.5823 19.7432C21.7113 19.8633 21.8147 20.0082 21.8865 20.1692C21.9582 20.3302 21.9968 20.504 21.9999 20.6802C22.003 20.8565 21.9706 21.0315 21.9046 21.195C21.8385 21.3584 21.7403 21.5068 21.6157 21.6315C21.491 21.7561 21.3426 21.8544 21.1791 21.9204C21.0157 21.9864 20.8407 22.0188 20.6644 22.0157C20.4882 22.0126 20.3144 21.974 20.1534 21.9023C19.9924 21.8305 19.8475 21.7271 19.7273 21.5982L14.9061 16.7787ZM15.8423 9.73316C15.8423 11.3576 15.197 12.9155 14.0484 14.0642C12.8997 15.2129 11.3418 15.8582 9.71733 15.8582C8.09288 15.8582 6.53497 15.2129 5.38631 14.0642C4.23765 12.9155 3.59233 11.3576 3.59233 9.73316C3.59233 8.10871 4.23765 6.55079 5.38631 5.40213C6.53497 4.25347 8.09288 3.60816 9.71733 3.60816C11.3418 3.60816 12.8997 4.25347 14.0484 5.40213C15.197 6.55079 15.8423 8.10871 15.8423 9.73316Z" fill="#6C6C6C"/>
</svg>
