<svg width="46" height="48" viewBox="0 0 46 48" fill="none" xmlns="http://www.w3.org/2000/svg">
<g id="bx:star">
<path id="Vector" d="M12.489 28.646L9.6332 41.55C9.54476 41.9407 9.57131 42.3502 9.70937 42.725C9.84743 43.0997 10.0906 43.4223 10.4071 43.6506C10.7236 43.8789 11.0987 44.0023 11.4835 44.0047C11.8682 44.0071 12.2447 43.8884 12.5638 43.664L23 36.404L33.4363 43.664C33.7628 43.8902 34.1478 44.0066 34.5396 43.9977C34.9314 43.9887 35.3111 43.8548 35.6278 43.6139C35.9444 43.3729 36.1828 43.0366 36.3108 42.6501C36.4388 42.2637 36.4504 41.8455 36.3439 41.452L32.8383 28.652L41.5323 20.488C41.8107 20.2264 42.0096 19.8853 42.1042 19.507C42.1989 19.1287 42.1852 18.7298 42.0649 18.3595C41.9446 17.9892 41.7229 17.6639 41.4272 17.4237C41.1316 17.1835 40.775 17.0389 40.4014 17.008L29.4745 16.1L24.7461 5.178C24.5953 4.82632 24.3502 4.52768 24.0404 4.31812C23.7306 4.10857 23.3692 3.99707 23 3.99707C22.6308 3.99707 22.2695 4.10857 21.9596 4.31812C21.6498 4.52768 21.4047 4.82632 21.2539 5.178L16.5255 16.1L5.59861 17.006C5.23149 17.0364 4.88051 17.1764 4.58768 17.4095C4.29484 17.6425 4.07255 17.9586 3.94739 18.3201C3.82223 18.6815 3.79951 19.0729 3.88194 19.4474C3.96437 19.822 4.14846 20.1638 4.4122 20.432L12.489 28.646ZM17.9573 19.994C18.2993 19.9655 18.6277 19.8417 18.9082 19.6355C19.1887 19.4293 19.411 19.1484 19.5519 18.822L23 10.86L26.4481 18.822C26.5891 19.1484 26.8114 19.4293 27.0919 19.6355C27.3724 19.8417 27.7008 19.9655 28.0428 19.994L35.6558 20.624L29.3864 26.512C28.842 27.024 28.6254 27.812 28.8248 28.548L31.2264 37.318L24.0657 32.336C23.7514 32.1159 23.3814 31.9983 23.0029 31.9983C22.6244 31.9983 22.2544 32.1159 21.9401 32.336L14.4574 37.542L16.4699 28.45C16.5437 28.1156 16.5338 27.767 16.4412 27.4378C16.3485 27.1085 16.1763 26.8097 15.9409 26.57L10.1181 20.646L17.9573 19.994Z" fill="#E55F00"/>
</g>
</svg>
