<svg width="50" height="48" viewBox="0 0 50 48" fill="none" xmlns="http://www.w3.org/2000/svg">
<g id="bxs:star">
<path id="Vector" d="M45.7228 18.358C45.5921 17.9876 45.3511 17.6621 45.0297 17.4218C44.7083 17.1815 44.3206 17.037 43.9145 17.006L32.0374 16.1L26.8978 5.17803C26.7341 4.82625 26.4679 4.52747 26.1312 4.31774C25.7946 4.10802 25.4019 3.99631 25.0006 3.99609C24.5992 3.99588 24.2064 4.10718 23.8695 4.31655C23.5326 4.52593 23.2661 4.82443 23.102 5.17603L17.9624 16.1L6.08531 17.006C5.68626 17.0364 5.30476 17.1764 4.98646 17.4095C4.66817 17.6425 4.42654 17.9587 4.2905 18.3201C4.15446 18.6815 4.12976 19.0729 4.21936 19.4474C4.30896 19.822 4.50906 20.1638 4.79573 20.432L13.5728 28.646L10.4686 41.55C10.3744 41.9406 10.4046 42.3494 10.5553 42.7233C10.7061 43.0972 10.9704 43.419 11.3141 43.6469C11.6577 43.8748 12.0647 43.9983 12.4824 44.0013C12.9 44.0044 13.3089 43.8869 13.6561 43.664L24.9999 36.404L36.3436 43.664C36.6985 43.8902 37.117 44.0067 37.5429 43.9977C37.9687 43.9887 38.3815 43.8548 38.7257 43.6139C39.0699 43.373 39.329 43.0367 39.4682 42.6502C39.6073 42.2637 39.6198 41.8456 39.5041 41.452L35.6936 28.652L45.1436 20.488C45.7624 19.952 45.9895 19.116 45.7228 18.358Z" fill="#E55F00"/>
</g>
</svg>
