<svg width="9" height="11" viewBox="0 0 9 11" fill="none" xmlns="http://www.w3.org/2000/svg">
<path id="Vector" d="M4.5046 0.249023C4.71701 0.249023 4.92072 0.333404 5.07092 0.483602C5.22112 0.6338 5.3055 0.837513 5.3055 1.04992V3.93424L7.80325 2.49155C7.9871 2.38702 8.20484 2.35945 8.40894 2.41486C8.61304 2.47028 8.78694 2.60417 8.89269 2.78733C8.99844 2.97048 9.02745 3.18803 8.97339 3.3925C8.91934 3.59696 8.7866 3.77175 8.60415 3.87871L6.1064 5.3214L8.60415 6.76356C8.7866 6.87052 8.91934 7.0453 8.97339 7.24977C9.02745 7.45424 8.99844 7.67178 8.89269 7.85494C8.78694 8.0381 8.61304 8.17199 8.40894 8.2274C8.20484 8.28282 7.9871 8.25525 7.80325 8.15072L5.3055 6.7091V9.59287C5.3055 9.80529 5.22112 10.009 5.07092 10.1592C4.92072 10.3094 4.71701 10.3938 4.5046 10.3938C4.29219 10.3938 4.08847 10.3094 3.93828 10.1592C3.78808 10.009 3.7037 9.80529 3.7037 9.59287V6.70856L1.20595 8.15125C1.11483 8.20467 1.01405 8.23954 0.909399 8.25385C0.80475 8.26816 0.698304 8.26162 0.59619 8.23462C0.494075 8.20763 0.39831 8.1607 0.314406 8.09654C0.230502 8.03238 0.160118 7.95226 0.107306 7.86079C0.054493 7.76932 0.0202951 7.6683 0.0066809 7.56356C-0.00693331 7.45882 0.000305032 7.35242 0.0279792 7.25048C0.0556533 7.14855 0.103217 7.0531 0.167931 6.96962C0.232645 6.88615 0.313232 6.8163 0.405052 6.76409L2.9028 5.3214L0.405052 3.87924C0.222601 3.77228 0.0898635 3.5975 0.0358058 3.39303C-0.0182519 3.18856 0.0107589 2.97102 0.116507 2.78786C0.222256 2.6047 0.396156 2.47081 0.60026 2.4154C0.804363 2.35998 1.0221 2.38755 1.20595 2.49208L3.7037 3.9337V1.04992C3.7037 0.837513 3.78808 0.6338 3.93828 0.483602C4.08847 0.333404 4.29219 0.249023 4.5046 0.249023Z" fill="#E55F00"/>
</svg>
